<mxfile host="app.diagrams.net" modified="2021-08-02T14:19:51.930Z" agent="5.0 (X11)" etag="c8u1BslsHZgs0933h1Qe" version="14.9.3" type="github">
  <diagram id="ALkyZSrOoAcbw6rtk0LM" name="Page-1">
    <mxGraphModel dx="1673" dy="840" grid="1" gridSize="10" guides="1" tooltips="1" connect="1" arrows="1" fold="1" page="1" pageScale="1" pageWidth="1169" pageHeight="827" background="#ffffff" math="0" shadow="0">
      <root>
        <mxCell id="0" />
        <mxCell id="1" parent="0" />
        <mxCell id="_bulFac5hPzbhJ2bnuvu-4" value="" style="rhombus;whiteSpace=wrap;html=1;" vertex="1" parent="1">
          <mxGeometry x="30" y="30" width="20" height="20" as="geometry" />
        </mxCell>
        <mxCell id="_bulFac5hPzbhJ2bnuvu-5" value="" style="rhombus;whiteSpace=wrap;html=1;" vertex="1" parent="1">
          <mxGeometry x="1070" y="30" width="20" height="20" as="geometry" />
        </mxCell>
        <mxCell id="_bulFac5hPzbhJ2bnuvu-6" value="" style="rhombus;whiteSpace=wrap;html=1;" vertex="1" parent="1">
          <mxGeometry x="1070" y="670" width="20" height="20" as="geometry" />
        </mxCell>
        <mxCell id="_bulFac5hPzbhJ2bnuvu-7" value="" style="rhombus;whiteSpace=wrap;html=1;" vertex="1" parent="1">
          <mxGeometry x="30" y="670" width="20" height="20" as="geometry" />
        </mxCell>
        <mxCell id="_bulFac5hPzbhJ2bnuvu-8" value="" style="rounded=0;whiteSpace=wrap;html=1;" vertex="1" parent="1">
          <mxGeometry x="50" y="60" width="20" height="80" as="geometry" />
        </mxCell>
        <mxCell id="_bulFac5hPzbhJ2bnuvu-9" value="" style="rounded=0;whiteSpace=wrap;html=1;" vertex="1" parent="1">
          <mxGeometry x="70" y="60" width="20" height="80" as="geometry" />
        </mxCell>
        <mxCell id="_bulFac5hPzbhJ2bnuvu-10" value="TFT 3,5&quot;" style="rounded=0;whiteSpace=wrap;html=1;" vertex="1" parent="1">
          <mxGeometry x="110" y="60" width="60" height="80" as="geometry" />
        </mxCell>
        <mxCell id="_bulFac5hPzbhJ2bnuvu-11" value="" style="ellipse;whiteSpace=wrap;html=1;aspect=fixed;" vertex="1" parent="1">
          <mxGeometry x="191" y="60" width="20" height="20" as="geometry" />
        </mxCell>
        <mxCell id="_bulFac5hPzbhJ2bnuvu-12" value="" style="ellipse;whiteSpace=wrap;html=1;aspect=fixed;" vertex="1" parent="1">
          <mxGeometry x="191" y="90" width="20" height="20" as="geometry" />
        </mxCell>
        <mxCell id="_bulFac5hPzbhJ2bnuvu-13" value="" style="ellipse;whiteSpace=wrap;html=1;aspect=fixed;" vertex="1" parent="1">
          <mxGeometry x="191" y="120" width="20" height="20" as="geometry" />
        </mxCell>
        <mxCell id="_bulFac5hPzbhJ2bnuvu-14" value="" style="ellipse;whiteSpace=wrap;html=1;aspect=fixed;" vertex="1" parent="1">
          <mxGeometry x="221" y="60" width="20" height="20" as="geometry" />
        </mxCell>
        <mxCell id="_bulFac5hPzbhJ2bnuvu-15" value="" style="ellipse;whiteSpace=wrap;html=1;aspect=fixed;" vertex="1" parent="1">
          <mxGeometry x="221" y="90" width="20" height="20" as="geometry" />
        </mxCell>
        <mxCell id="_bulFac5hPzbhJ2bnuvu-16" value="" style="ellipse;whiteSpace=wrap;html=1;aspect=fixed;" vertex="1" parent="1">
          <mxGeometry x="221" y="120" width="20" height="20" as="geometry" />
        </mxCell>
        <mxCell id="_bulFac5hPzbhJ2bnuvu-17" value="АВТ 40А" style="rounded=1;whiteSpace=wrap;html=1;fontSize=9;" vertex="1" parent="1">
          <mxGeometry x="50" y="95" width="40" height="10" as="geometry" />
        </mxCell>
        <mxCell id="_bulFac5hPzbhJ2bnuvu-19" value="" style="ellipse;whiteSpace=wrap;html=1;aspect=fixed;fontSize=9;" vertex="1" parent="1">
          <mxGeometry x="196" y="65" width="10" height="10" as="geometry" />
        </mxCell>
      </root>
    </mxGraphModel>
  </diagram>
</mxfile>
